<svg width="1016" height="170" viewBox="0 0 1016 170" fill="none" xmlns="http://www.w3.org/2000/svg">
<path d="M955.403 39.5492V66.5613H1008.25V101.56H955.403V131.39H1015.3V168.268H909.365V2.67175H1015.3V39.5492H955.403Z" fill="white"/>
<path d="M840.962 57.1657C838.3 52.7811 834.62 49.4144 829.922 47.0655C825.381 44.7166 819.979 43.5422 813.715 43.5422C802.127 43.5422 792.967 47.3004 786.233 54.8168C779.656 62.3332 776.368 72.4334 776.368 85.1174C776.368 99.3672 779.891 110.25 786.938 117.767C794.141 125.127 804.554 128.807 818.178 128.807C834.307 128.807 845.816 121.525 852.706 106.962H806.434V73.8427H892.403V118.471C888.801 127.241 883.477 135.462 876.43 143.135C869.54 150.808 860.771 157.15 850.123 162.161C839.475 167.015 827.339 169.442 813.715 169.442C797.116 169.442 782.397 165.919 769.556 158.872C756.872 151.669 747.007 141.725 739.96 129.041C733.07 116.201 729.625 101.56 729.625 85.1174C729.625 68.8318 733.07 54.347 739.96 41.6631C747.007 28.8225 756.872 18.8789 769.556 11.8323C782.24 4.62908 796.881 1.02747 813.48 1.02747C834.307 1.02747 851.532 6.03841 865.156 16.0603C878.779 26.0822 887.235 39.784 890.523 57.1657H840.962Z" fill="white"/>
<path d="M667.496 168.268L634.612 107.197H629.679V168.268H583.641V2.67175H656.221C669.532 2.67175 680.806 5.02063 690.045 9.7184C699.284 14.2596 706.253 20.6015 710.95 28.7443C715.648 36.7305 717.997 45.7345 717.997 55.7564C717.997 67.0311 714.865 76.9747 708.602 85.5872C702.494 94.0432 693.49 100.072 681.589 103.674L718.937 168.268H667.496ZM629.679 75.7219H652.463C658.727 75.7219 663.425 74.2343 666.557 71.259C669.688 68.2838 671.254 63.9775 671.254 58.3402C671.254 53.0161 669.61 48.8664 666.322 45.8911C663.19 42.7593 658.57 41.1934 652.463 41.1934H629.679V75.7219Z" fill="white"/>
<path d="M485.491 169.912C469.988 169.912 455.738 166.31 442.741 159.107C429.744 151.747 419.409 141.647 411.736 128.807C404.219 115.809 400.461 101.168 400.461 84.8826C400.461 68.597 404.219 54.0339 411.736 41.1934C419.409 28.1963 429.744 18.0961 442.741 10.8929C455.738 3.68963 469.988 0.0880127 485.491 0.0880127C501.15 0.0880127 515.4 3.68963 528.24 10.8929C541.237 18.0961 551.494 28.1963 559.01 41.1934C566.527 54.0339 570.285 68.597 570.285 84.8826C570.285 101.168 566.527 115.809 559.01 128.807C551.494 141.647 541.237 151.747 528.24 159.107C515.243 166.31 500.993 169.912 485.491 169.912ZM485.491 127.162C497.235 127.162 506.474 123.326 513.207 115.653C520.097 107.98 523.542 97.7231 523.542 84.8826C523.542 71.7288 520.097 61.3938 513.207 53.8774C506.474 46.2044 497.235 42.3678 485.491 42.3678C473.59 42.3678 464.272 46.2044 457.539 53.8774C450.805 61.3938 447.439 71.7288 447.439 84.8826C447.439 97.8797 450.805 108.215 457.539 115.888C464.272 123.404 473.59 127.162 485.491 127.162Z" fill="white"/>
<path d="M401.39 2.67175V39.3143H335.152V68.4404H384.008V103.439H335.152V168.268H289.114V2.67175H401.39Z" fill="white"/>
<path d="M194.014 65.3161C205.876 61.5309 217.737 53.1023 229.598 40.8732C217.729 28.4295 206.129 22.2996 194.014 19.9933V2.65332H49.395V15.2426H0.700684C9.48175 39.0649 28.7373 55.4853 49.395 61.1018V81.637H87.477C80.8643 104.095 67.1564 122.531 50.3988 138.484H36.0089V151.081C35.9476 151.135 35.8863 151.181 35.825 151.234H36.0089V168.268H216.113V138.492H196.964C178.238 122.554 164.959 104.134 158.775 81.6446H194.014V65.3161Z" fill="white"/>
</svg>
